<?xml version="1.0" encoding="utf-8"?>
<!-- Generator: Adobe Illustrator 24.0.0, SVG Export Plug-In . SVG Version: 6.00 Build 0)  -->
<svg version="1.1" id="Layer_1" xmlns="http://www.w3.org/2000/svg" xmlns:xlink="http://www.w3.org/1999/xlink" x="0px" y="0px"
	 viewBox="0 0 58.781 55" style="enable-background:new 0 0 58.781 55;" xml:space="preserve">
<style type="text/css">
	.st0{fill:#FFFFFF;}
	.st1{fill:#00A651;}
	.st2{opacity:0.1;fill:#EC008C;}
	.st3{fill:#EC008C;}
	.st4{opacity:0.1;fill:#2E3192;}
	.st5{fill:#2E3192;}
	.st6{opacity:0.1;fill:#D500F9;}
	.st7{fill:#D500F9;}
	.st8{opacity:0.1;fill:#00A651;}
	.st9{opacity:0.1;fill:#304FFE;}
	.st10{fill:#304FFE;}
	.st11{opacity:0.1;fill:#F26C4F;}
	.st12{fill:#F26C4F;}
	.st13{fill:none;stroke:#1565C0;stroke-width:2;stroke-miterlimit:10;}
	.st14{fill:#1565C0;}
</style>
<g>
	<path class="st0" d="M56.338,8.818c-1.347,0-2.443,1.096-2.443,2.443v15.135L40.74,40.002l-2.477-2.395l7.032-7.273
		c0.879-1.03,0.822-2.59-0.155-3.551c-1.02-1.004-2.67-0.995-3.679,0.021L31.113,37.215V55h15.561v-4.259l12.107-20.308V11.262
		C58.781,9.914,57.685,8.818,56.338,8.818z"/>
	<path class="st0" d="M13.641,26.783c-0.977,0.961-1.034,2.522-0.155,3.551l7.032,7.273l-2.477,2.395L4.887,26.397V11.262
		c0-1.347-1.096-2.443-2.443-2.443S0,9.914,0,11.262v19.171l12.107,20.308V55h15.561V37.215L17.321,26.803
		C16.312,25.788,14.661,25.779,13.641,26.783z"/>
	<path class="st0" d="M36.857,19.699c0.28-0.269,0.566-0.538,0.856-0.81c1.67-1.571,3.562-3.352,4.766-5.553
		c1.63-2.98,1.581-6.295-0.134-9.096c-2.128-3.476-5.112-4.225-7.24-4.24c-1.797-0.013-3.564,0.499-5.119,1.48L29.39,1.853
		L28.8,1.483C27.241,0.499,25.47-0.014,23.676,0c-2.128,0.016-5.111,0.764-7.24,4.24c-1.714,2.801-1.763,6.116-0.134,9.096
		c1.204,2.201,3.096,3.981,4.766,5.553c0.289,0.272,0.576,0.542,0.856,0.81c1.061,1.019,2.132,1.998,3.167,2.945
		c1.02,0.933,2.075,1.897,3.106,2.887l1.193,1.145l1.193-1.145c1.031-0.99,2.086-1.954,3.106-2.887
		C34.725,21.697,35.795,20.719,36.857,19.699z"/>
</g>
</svg>
