<?xml version="1.0" encoding="utf-8"?>
<!-- Generator: Adobe Illustrator 24.0.0, SVG Export Plug-In . SVG Version: 6.00 Build 0)  -->
<svg version="1.1" id="Layer_1" xmlns="http://www.w3.org/2000/svg" xmlns:xlink="http://www.w3.org/1999/xlink" x="0px" y="0px"
	 viewBox="0 0 55 55" style="enable-background:new 0 0 55 55;" xml:space="preserve">
<style type="text/css">
	.st0{fill:#FFFFFF;}
	.st1{fill:#00A651;}
	.st2{opacity:0.1;fill:#EC008C;}
	.st3{fill:#EC008C;}
	.st4{opacity:0.1;fill:#2E3192;}
	.st5{fill:#2E3192;}
	.st6{opacity:0.1;fill:#D500F9;}
	.st7{fill:#D500F9;}
	.st8{opacity:0.1;fill:#00A651;}
	.st9{opacity:0.1;fill:#304FFE;}
	.st10{fill:#304FFE;}
	.st11{opacity:0.1;fill:#F26C4F;}
	.st12{fill:#F26C4F;}
	.st13{fill:none;stroke:#1565C0;stroke-width:2;stroke-miterlimit:10;}
	.st14{fill:#1565C0;}
</style>
<g>
	<path class="st0" d="M43.083,48.583c0,1.012-0.821,1.833-1.833,1.833s-1.833-0.821-1.833-1.833s0.821-1.833,1.833-1.833
		S43.083,47.571,43.083,48.583z"/>
	<path class="st0" d="M40.544,13.942c0.761-3.034,1.072-4.326,0.679-5.913C40.223,4.043,35.191,0,27.5,0S14.777,4.043,13.777,8.03
		c-0.394,1.586-0.082,2.878,0.679,5.913c-1.716,0.552-2.774,2.272-2.493,4.053c0.281,1.781,1.818,3.091,3.62,3.088h0.064
		c0.413,3.85,3.309,7.095,6.38,9.038c-0.013,0.042-0.022,0.085-0.027,0.128v3.667c0,0.506,0.41,0.917,0.917,0.917
		s0.917-0.41,0.917-0.917v-2.805c1.142,0.574,2.391,0.905,3.667,0.972c1.276-0.067,2.525-0.397,3.667-0.972v2.805
		c0,0.506,0.41,0.917,0.917,0.917c0.506,0,0.917-0.41,0.917-0.917V30.25c-0.005-0.043-0.014-0.086-0.027-0.128
		c3.07-1.943,5.967-5.188,6.38-9.038h0.064c1.802,0.003,3.339-1.307,3.62-3.088C43.318,16.215,42.26,14.495,40.544,13.942z
		 M15.583,19.25c-1.012,0-1.833-0.821-1.833-1.833s0.821-1.833,1.833-1.833V19.25z M37.583,20.167
		c0,5.418-6.765,10.083-10.083,10.083s-10.083-4.666-10.083-10.083v-4.904c5.161-0.917,10.084-2.866,14.474-5.729
		c1.136,1.494,3.474,4.317,5.692,5.5V20.167z M39.417,19.25v-3.667c1.012,0,1.833,0.821,1.833,1.833S40.429,19.25,39.417,19.25z"/>
	<path class="st0" d="M34.833,17.417c0,1.012-0.821,1.833-1.833,1.833s-1.833-0.821-1.833-1.833s0.821-1.833,1.833-1.833
		S34.833,16.404,34.833,17.417z"/>
	<path class="st0" d="M23.833,17.417c0,1.012-0.821,1.833-1.833,1.833s-1.833-0.821-1.833-1.833s0.821-1.833,1.833-1.833
		S23.833,16.404,23.833,17.417z"/>
	<path class="st0" d="M29.676,24.036c-1.296,0.947-3.056,0.947-4.352,0c-0.254-0.219-0.607-0.283-0.921-0.165
		c-0.314,0.118-0.539,0.397-0.586,0.729c-0.047,0.332,0.091,0.663,0.359,0.864c1.962,1.5,4.685,1.5,6.648,0
		c0.269-0.201,0.406-0.532,0.359-0.864c-0.047-0.332-0.272-0.611-0.586-0.729C30.283,23.753,29.93,23.817,29.676,24.036z"/>
	<path class="st0" d="M26.583,41.782l-7.599-7.599c-0.175-0.169-0.408-0.264-0.651-0.266h-0.917
		c-0.921,0.002-1.841,0.079-2.75,0.229v7.59c2.593,0.237,4.58,2.41,4.583,5.014v4.583c0,0.506-0.41,0.917-0.917,0.917H16.5
		c-0.506,0-0.917-0.41-0.917-0.917s0.41-0.917,0.917-0.917h0.917V46.75c0-1.772-1.436-3.208-3.208-3.208h-0.917
		c-1.772,0-3.208,1.436-3.208,3.208v3.667H11c0.506,0,0.917,0.41,0.917,0.917S11.506,52.25,11,52.25H9.167
		c-0.506,0-0.917-0.41-0.917-0.917V46.75c0.004-2.604,1.99-4.778,4.583-5.014v-7.177C5.322,36.705,0.107,43.522,0,51.333v2.75
		C0,54.59,0.41,55,0.917,55h25.667V41.782z"/>
	<path class="st0" d="M54.973,50.444c-0.009-0.238-0.028-0.477-0.055-0.715c-0.009-0.192-0.037-0.385-0.064-0.577
		c-0.027-0.239-0.064-0.477-0.11-0.715c-0.037-0.229-0.083-0.467-0.138-0.696c-0.055-0.229-0.101-0.468-0.165-0.697
		c-0.073-0.266-0.147-0.531-0.229-0.797c-0.101-0.312-0.211-0.623-0.33-0.926c-0.073-0.201-0.156-0.412-0.248-0.614
		c-0.011-0.038-0.026-0.075-0.046-0.11c-0.11-0.248-0.22-0.495-0.339-0.733c-0.091-0.192-0.183-0.376-0.284-0.559
		c-0.165-0.312-0.339-0.623-0.531-0.926c-0.147-0.238-0.303-0.467-0.458-0.706c-0.156-0.238-0.321-0.458-0.486-0.678
		c-0.165-0.22-0.33-0.431-0.504-0.642c-1.47-1.781-3.269-3.262-5.299-4.364c-0.211-0.11-0.422-0.22-0.632-0.32
		c-0.183-0.092-0.367-0.174-0.55-0.257c-0.54-0.246-1.094-0.461-1.659-0.641c-0.193-0.064-0.385-0.128-0.578-0.184
		c-0.027-0.009-0.064-0.018-0.101-0.027v10.477c1.788,0.462,2.954,2.181,2.721,4.012c-0.233,1.832-1.791,3.205-3.638,3.205
		s-3.405-1.373-3.638-3.205c-0.233-1.832,0.933-3.55,2.721-4.012v-10.89c-0.156-0.027-0.312-0.046-0.477-0.073
		c-0.192-0.027-0.385-0.046-0.577-0.064c-0.257-0.028-0.523-0.055-0.788-0.064c-0.303-0.018-0.605-0.027-0.908-0.027h-0.917
		c-0.243,0.002-0.476,0.097-0.651,0.266l-7.599,7.599V55h25.667C54.59,55,55,54.59,55,54.083v-2.75
		C55,51.031,54.991,50.738,54.973,50.444z"/>
</g>
</svg>
