<?xml version="1.0" encoding="utf-8"?>
<!-- Generator: Adobe Illustrator 24.0.0, SVG Export Plug-In . SVG Version: 6.00 Build 0)  -->
<svg version="1.1" id="Layer_1" xmlns="http://www.w3.org/2000/svg" xmlns:xlink="http://www.w3.org/1999/xlink" x="0px" y="0px"
	 viewBox="0 0 46.983 55" style="enable-background:new 0 0 46.983 55;" xml:space="preserve">
<style type="text/css">
	.st0{fill:#FFFFFF;}
	.st1{fill:#00A651;}
	.st2{opacity:0.1;fill:#EC008C;}
	.st3{fill:#EC008C;}
	.st4{opacity:0.1;fill:#2E3192;}
	.st5{fill:#2E3192;}
	.st6{opacity:0.1;fill:#D500F9;}
	.st7{fill:#D500F9;}
	.st8{opacity:0.1;fill:#00A651;}
	.st9{opacity:0.1;fill:#304FFE;}
	.st10{fill:#304FFE;}
	.st11{opacity:0.1;fill:#F26C4F;}
	.st12{fill:#F26C4F;}
	.st13{fill:none;stroke:#1565C0;stroke-width:2;stroke-miterlimit:10;}
	.st14{fill:#1565C0;}
</style>
<g>
	<g>
		<g>
			<path class="st0" d="M7.17,28.787c0.1,1.11,0.725,2.154,1.77,2.74c0.868,0.486,1.763,0.844,2.676,1.086
				c-0.515,1.738-1.461,4.252-3.145,6.946c-1.599,2.56-1.619,5.648-0.05,8.476C10.732,52.2,15.833,55,21.117,55
				c3.629,0,6.856-1.671,9.084-4.706c3.185-4.339,3.891-10.743,1.887-17.127c-1.858-5.918,0.627-9.075,2.271-10.432
				c1.34,1.292,3.158,2.088,5.167,2.088c4.117,0,7.456-3.339,7.456-7.457s-3.34-7.456-7.456-7.456c-4.119,0-7.456,3.339-7.456,7.456
				c0,0.58,0.072,1.141,0.197,1.683c-3.104,2.271-6.688,7.382-4.18,15.374c1.582,5.039,1.096,10.169-1.268,13.389
				c-1.002,1.367-2.807,2.995-5.703,2.995c-3.747,0-7.459-1.977-9.027-4.806c-0.578-1.043-1.057-2.624-0.06-4.22
				c2.227-3.565,3.342-6.892,3.871-8.926c1.238-0.186,2.447-0.586,3.609-1.207c1.036-0.554,1.672-1.555,1.812-2.638
				c4.926-4.454,7.201-12.478,7.332-12.948c0.266-0.963-0.188-1.952-1.035-2.403c0.68-6.024-1.549-9.06-2.895-10.297
				c0.103-0.579-0.129-1.198-0.637-1.53l-2.472-1.616c-0.646-0.422-1.458-0.209-1.811,0.478l-1.178,2.276
				c-0.355,0.687-0.042,1.42,0.699,1.639l2.795,0.824c0.709,0.209,1.558-0.13,1.959-0.751c1.114,1.173,2.718,3.786,2.165,8.769
				c-0.76,0.145-1.411,0.698-1.631,1.494c-0.672,2.41-2.611,7.389-5.491,10.374c-0.917-0.354-1.97-0.337-2.905,0.161
				c-0.609,0.325-1.204,0.489-1.815,0.502h-0.126c-0.644-0.014-1.273-0.195-1.916-0.555c-0.912-0.511-1.95-0.557-2.866-0.233
				c-2.815-2.998-4.714-7.871-5.374-10.248c-0.221-0.794-0.875-1.348-1.632-1.493c-0.554-4.984,1.05-7.596,2.165-8.769
				c0.402,0.621,1.25,0.96,1.958,0.751l2.795-0.824c0.74-0.219,1.055-0.953,0.699-1.639L8.927,0.696
				c-0.355-0.687-1.167-0.9-1.811-0.478L4.641,1.834c-0.508,0.332-0.739,0.951-0.637,1.53C2.661,4.601,0.43,7.636,1.11,13.661
				c-0.847,0.451-1.299,1.44-1.035,2.404C0.204,16.525,2.41,24.294,7.17,28.787z M39.527,14.453c1.607,0,2.912,1.303,2.912,2.913
				c0,1.609-1.305,2.913-2.912,2.913c-1.609,0-2.913-1.304-2.913-2.913C36.613,15.756,37.917,14.453,39.527,14.453z"/>
		</g>
	</g>
</g>
</svg>
